<svg xmlns="http://www.w3.org/2000/svg" viewBox="0 0 64 64" id="CameraShutter">
  <path d="M24.2 39.334 11.422 18.126A24.684 24.684 0 0 0 7.174 32c0 2.552.388 5.015 1.107 7.334H24.2zm5.369-17.86h24.908C51.278 14.67 45.08 9.549 37.595 7.818l-8.026 13.656zm-7.996 7.686L34.424 7.294A24.9 24.9 0 0 0 32 7.174c-7.402 0-14.053 3.26-18.605 8.415l8.178 13.571zm5.177 26.885 7.862-13.711H9.436c3.302 7.181 9.929 12.524 17.9 14.047l-.586-.336zm13.012-31.571L52.311 46.25A24.68 24.68 0 0 0 56.827 32a24.71 24.71 0 0 0-1.17-7.526H39.762zm2.558 10.449L29.819 56.725c.719.063 1.446.101 2.181.101 7.234 0 13.753-3.111 18.295-8.064L42.32 34.923z" fill="#a6a8af" class="color000000 svgShape"></path>
</svg>